PathFileType	4	(X/Y/Z)	s11c0101.trc
DataRate	CameraRate	NumFrames	NumMarkers	Units	OrigDataRate	OrigDataStartFrame	OrigNumFrames
200	200	7	48	mm	200	750	2000
Frame#	Time	racr			lacr			c7			jug			rlel			rdr			llel			ldr			s2			lic			ric			lasi			rasi			rpsi			lpsi			rgt			lgt			rth1			rth2			rth3			rth4			rlfc			rmfc			rsh1			rsh2			rsh3			rsh4			rlmal			rcal			rtoe			rmt5			lth1			lth2			lth4			lth3			llfc			lmfc			llmal			lcal			lmt5			lsh1			lsh2			lsh3			lsh4			ltoe			SBIKE			LBIKE			RBIKE			
		X1	Y1	Z1	X2	Y2	Z2	X3	Y3	Z3	X4	Y4	Z4	X5	Y5	Z5	X6	Y6	Z6	X7	Y7	Z7	X8	Y8	Z8	X9	Y9	Z9	X10	Y10	Z10	X11	Y11	Z11	X12	Y12	Z12	X13	Y13	Z13	X14	Y14	Z14	X15	Y15	Z15	X16	Y16	Z16	X17	Y17	Z17	X18	Y18	Z18	X19	Y19	Z19	X20	Y20	Z20	X21	Y21	Z21	X22	Y22	Z22	X23	Y23	Z23	X24	Y24	Z24	X25	Y25	Z25	X26	Y26	Z26	X27	Y27	Z27	X28	Y28	Z28	X29	Y29	Z29	X30	Y30	Z30	X31	Y31	Z31	X32	Y32	Z32	X33	Y33	Z33	X34	Y34	Z34	X35	Y35	Z35	X36	Y36	Z36	X37	Y37	Z37	X38	Y38	Z38	X39	Y39	Z39	X40	Y40	Z40	X41	Y41	Z41	X42	Y42	Z42	X43	Y43	Z43	X44	Y44	Z44	X45	Y45	Z45	X46	Y46	Z46	X47	Y47	Z47	X48	Y48	Z48	
750	3.7500	553.811796	1330.826756	-103.578688	539.470134	1336.011974	-419.637406	507.085444	1419.052089	-258.667215	489.129289	1234.830026	-278.532140	557.821524	1079.144846	29.403313	775.967578	932.764487	-66.946099	493.718248	1068.221777	-581.477704	768.847603	934.223568	-486.610625	-88.465455	1241.471255	-230.544151	119.799541	1264.424447	-450.038624	143.711966	1208.286115	-46.876515	139.593564	1196.428099	-404.254376	162.881756	1147.022973	-82.077750	-29.349277	1305.914111	-171.509764	-45.412558	1311.574149	-268.606827	52.389618	1062.324938	-35.419902	37.638907	1159.938908	-465.850153	114.208927	935.855385	-29.965996	173.496031	869.751157	-43.008774	190.098407	787.302460	-67.383943	206.176909	886.907751	-48.556055	240.508344	698.232366	-91.267581	239.767436	682.721871	-218.307656	199.112434	547.760234	-74.667748	193.440334	461.482099	-92.968403	148.015009	386.987344	-91.876527	215.093547	457.641880	-126.023189	99.952661	255.873202	-101.215194	33.714692	246.674211	-147.193116	310.131229	170.578399	-148.460390	239.166442	153.131925	-76.916745	175.834625	1104.310392	-480.518365	260.983820	1095.802235	-477.868728	274.988709	1127.677708	-463.198049	333.748660	1043.446356	-485.167399	455.690212	984.894448	-468.009363	474.770180	974.295750	-334.343765	208.249045	631.941645	-420.658797	142.259713	610.823250	-383.018958	310.882511	491.627767	-454.339495	386.113707	885.291020	-476.237694	361.469869	803.640403	-460.219208	297.889835	743.003022	-449.151137	390.655187	789.666693	-438.634840	409.428035	479.292938	-388.943797	-215.463991	960.939449	-256.370857	-17.751138	81.131529	-461.049682	-17.773172	81.094890	-62.178790	
751	3.7550	554.226317	1329.928360	-104.888922	538.520116	1335.323057	-421.420431	507.348007	1418.336840	-259.457499	488.315367	1234.270661	-279.763063	558.230333	1079.183724	29.521621	776.007672	932.706538	-66.716111	492.035110	1066.670622	-581.039271	768.161289	934.268359	-486.562316	-88.552264	1242.885895	-229.773635	118.926548	1265.175054	-450.073413	144.038228	1209.467984	-46.745183	138.835549	1197.092100	-404.847586	162.899099	1147.823989	-82.521094	-29.029054	1307.200307	-171.153286	-45.550525	1312.878822	-268.170282	52.753818	1063.469143	-35.002149	36.497116	1160.097035	-465.091673	115.969641	937.165311	-30.036762	176.263896	871.926330	-43.041988	194.112411	789.644277	-67.226001	208.656055	889.477668	-48.309968	245.603900	701.484614	-90.558684	245.031161	685.639294	-217.849233	200.736254	550.825609	-74.411752	193.024063	464.821564	-92.870201	145.813326	391.245089	-91.946043	214.613867	460.510215	-125.907932	94.602835	261.673256	-101.383256	28.140533	254.301551	-147.420403	302.218705	170.312213	-148.400081	230.672241	155.051896	-76.898906	174.573884	1103.745733	-479.965476	259.744051	1095.058860	-477.486724	273.836175	1127.037057	-463.171264	332.432440	1042.433405	-484.425138	454.380499	983.272062	-467.131242	473.023176	973.032392	-333.798990	211.932366	626.172953	-420.595386	146.392797	602.884535	-383.220796	318.918586	489.752696	-454.909795	386.356027	882.363244	-475.639011	362.834638	800.291266	-459.850814	300.131895	738.710575	-449.006365	392.183784	786.759738	-438.084997	417.668257	480.958985	-389.113053	-215.470483	960.956373	-256.298286	-17.747837	81.120977	-461.035091	-17.769677	81.119013	-62.176973	
752	3.7600	554.514492	1328.882031	-106.194607	537.581512	1334.364085	-423.179349	507.591011	1417.560027	-260.293109	487.316693	1233.654904	-280.857020	558.461463	1079.116273	29.807469	775.996496	932.657105	-66.426690	490.287574	1064.886777	-580.607568	767.467747	934.275769	-486.470532	-88.462097	1244.057980	-229.173228	117.803143	1265.759199	-450.164447	142.996971	1210.268445	-47.308718	137.843149	1197.337231	-405.352145	162.613924	1148.662393	-81.463471	-28.811242	1308.542049	-170.863618	-45.786897	1314.117266	-267.650792	53.284390	1064.571139	-34.746097	35.187876	1159.893158	-464.249897	118.200533	938.416362	-30.355085	179.525734	874.319719	-43.088050	198.763622	792.243614	-66.928896	211.646978	892.230624	-48.268707	251.439864	704.366410	-90.213793	250.572232	688.712316	-217.334307	202.902559	554.133240	-74.136753	193.077799	468.410361	-92.771170	144.000771	396.081533	-91.974979	214.625114	463.526158	-125.760556	89.640835	268.107462	-101.493021	23.148138	262.626387	-147.677074	294.497365	170.330878	-148.386609	222.521186	157.365608	-76.901132	173.095320	1102.867555	-479.458150	258.258460	1093.793492	-477.110211	272.526403	1125.794007	-463.105737	330.720705	1040.841047	-483.869169	452.865824	980.594696	-466.266405	471.093097	970.811332	-333.186356	215.322377	619.598362	-420.495361	149.550313	593.683825	-383.719410	326.663720	487.254111	-455.474415	386.260806	878.474270	-475.163861	363.883729	795.903657	-459.538689	302.039591	733.583620	-448.837331	393.252541	783.011307	-437.835895	425.627115	482.081308	-389.186692	-215.461146	960.981248	-256.187249	-17.759134	81.166890	-461.088114	-17.766132	81.138792	-62.192858	
753	3.7650	554.750916	1327.496806	-107.305087	536.670133	1333.157469	-424.724643	507.860873	1416.477101	-260.982051	486.289652	1232.751612	-281.832166	558.687996	1078.929737	30.312415	775.900152	932.626724	-66.168283	488.636735	1063.134715	-580.129382	766.790563	934.269007	-486.348379	-88.541850	1245.234934	-228.508460	116.594452	1266.454020	-450.300970	144.485645	1211.602525	-45.994349	136.661277	1197.362786	-405.814816	162.505135	1148.962224	-81.286546	-28.628705	1309.791735	-170.679675	-45.961955	1315.264768	-267.097100	53.930184	1065.542652	-34.622975	33.683270	1159.506954	-463.293609	120.864008	939.813006	-30.649609	183.264833	876.651910	-43.196102	204.136267	794.709254	-66.419594	215.021333	895.025194	-48.519040	257.794277	707.220440	-89.664476	256.517099	691.796761	-216.782800	205.582035	557.721860	-73.849617	193.596603	472.220879	-92.652057	142.881031	401.245536	-92.008417	215.054076	467.028744	-125.677849	85.196389	275.044810	-101.526634	18.572540	271.611784	-147.884620	286.869941	170.541098	-148.242551	214.429242	160.090112	-76.968536	171.480281	1101.576032	-478.988862	256.599162	1091.978417	-476.571150	271.077393	1124.083749	-463.154331	328.743603	1038.674138	-483.473247	451.242024	976.897880	-465.345101	469.021109	967.702714	-332.603411	218.535995	612.104691	-420.347872	153.347063	583.918611	-383.893454	334.122181	483.913932	-456.033482	386.123453	873.165837	-474.458251	364.741811	790.588902	-459.198803	303.747212	727.355052	-448.648568	394.148895	778.164407	-437.422476	433.300438	482.792579	-389.611027	-215.449825	960.989605	-256.069973	-17.763429	81.143651	-461.052266	-17.782208	81.153789	-62.202197	
754	3.7700	554.987303	1326.087443	-108.677772	535.812776	1331.775279	-426.144681	508.114718	1415.451537	-261.877407	485.227945	1231.879071	-282.674494	558.814090	1078.633022	30.932897	775.728196	932.594567	-65.894911	486.862564	1061.370517	-579.529802	766.232821	934.206409	-486.189144	-88.396338	1246.163750	-227.903353	115.216408	1266.719052	-450.160345	144.725225	1212.637712	-45.375767	135.638212	1197.279057	-406.828589	162.453707	1149.284670	-81.168853	-28.476191	1310.936185	-170.532827	-46.146377	1316.484979	-266.759135	54.787092	1066.443549	-34.516459	32.157675	1158.921770	-462.372593	123.842008	941.170187	-31.021642	187.398038	879.029544	-43.379979	209.781740	797.326056	-66.018307	218.807065	898.043433	-48.877637	264.534354	710.177610	-89.066641	262.878815	694.696843	-216.139771	208.745672	561.580681	-73.613687	194.577815	476.733899	-92.477027	141.958928	406.826564	-91.981990	215.912499	470.874228	-125.577849	81.193844	282.428869	-101.511151	14.435874	281.219798	-148.110112	279.638966	171.555544	-147.849762	206.467652	163.473878	-77.004571	169.717497	1099.860780	-478.458263	254.765253	1089.654675	-476.269538	269.537794	1121.731414	-463.233354	326.530068	1035.792434	-483.030010	449.397883	972.194523	-464.494555	466.788049	963.595237	-332.059551	221.528152	603.855414	-420.282780	156.875969	572.753399	-383.636427	341.282737	480.118493	-456.710857	385.652664	867.204026	-474.209259	365.383838	784.377464	-458.880187	305.285170	720.226933	-448.514742	394.919777	772.388226	-436.862521	440.504244	483.202784	-390.283856	-215.429605	961.002138	-256.064175	-17.751643	81.189365	-461.050419	-17.792163	81.150754	-62.182610	
755	3.7750	555.167163	1324.400664	-109.562161	534.998104	1330.290410	-427.332501	508.307361	1414.254803	-262.644889	484.181952	1230.836643	-283.405594	558.816710	1078.174992	31.604716	775.510257	932.556550	-65.638620	485.192419	1059.595866	-578.850050	765.688062	934.103075	-486.104927	-88.477006	1247.157465	-227.038554	113.942462	1267.212454	-450.399402	144.585050	1213.599216	-44.981088	134.674868	1196.921852	-407.886820	162.168824	1149.698080	-80.909244	-28.441349	1311.987214	-170.328260	-46.703495	1317.332349	-266.228729	55.746006	1067.219598	-34.367413	30.671905	1158.306636	-461.565142	127.146819	942.466324	-31.277201	191.818318	881.489846	-43.674996	215.731835	800.048081	-65.753103	222.783587	901.091139	-49.528167	271.572555	713.321263	-88.548017	269.412687	697.923617	-215.606481	212.136678	565.804162	-73.452461	195.794399	481.371360	-92.465999	141.588242	412.668439	-91.968787	216.915056	474.907653	-125.566971	77.507795	290.263825	-101.478558	10.853354	290.926908	-148.333956	272.011878	172.584124	-147.748084	198.732281	167.231629	-76.970862	167.881743	1097.739304	-477.988269	252.837918	1086.736866	-475.953906	267.923797	1118.917934	-463.369701	324.033413	1032.254884	-482.542237	447.300421	966.661709	-463.725449	464.449811	958.721836	-331.514001	224.509962	594.815187	-420.385882	160.375212	561.271290	-383.888424	348.192744	475.512911	-457.352384	385.024119	860.381991	-474.077575	365.955107	777.251887	-458.650708	306.737010	712.331475	-448.466855	395.487747	765.780699	-436.502025	447.310020	482.728914	-390.832542	-215.388340	960.998804	-255.990047	-17.757068	81.162985	-461.009351	-17.761699	81.158043	-62.162740	
756	3.7800	555.314474	1322.525419	-110.341903	534.218159	1328.857908	-428.419058	508.436484	1413.221518	-263.514917	483.026217	1229.954930	-284.083201	558.722877	1077.517206	32.262772	775.243702	932.543932	-65.396808	483.560272	1057.678548	-577.991589	765.249845	933.958856	-486.035067	-88.291769	1247.708366	-226.395170	112.631532	1267.595824	-450.617518	143.157261	1214.353109	-45.425394	133.492428	1196.101073	-408.422810	161.880364	1149.943133	-80.452691	-28.423444	1312.930552	-170.164779	-47.047871	1318.044336	-265.598455	56.923662	1067.953945	-34.205783	29.110208	1157.475346	-460.715402	130.670795	943.640775	-31.629758	196.458997	884.045320	-44.049752	221.876833	802.884978	-65.588319	226.987376	904.208156	-50.321237	278.876610	716.785269	-88.034939	276.332737	700.946073	-215.082439	215.776682	570.145419	-73.297443	197.296299	486.099581	-92.420561	141.411950	418.898844	-91.893183	218.234100	479.283096	-125.537132	74.051756	298.520325	-101.444597	7.439023	301.094932	-148.445647	264.844902	174.109867	-147.726423	191.357248	171.383217	-76.964641	165.971517	1095.244954	-477.605786	250.798789	1083.422063	-475.712133	266.198906	1115.288729	-463.317342	321.454659	1028.116148	-482.017861	444.059807	960.497401	-464.081754	461.882873	953.023287	-331.090766	227.475167	585.214125	-420.568832	164.043283	549.691186	-384.827660	354.892209	470.393082	-458.026410	384.302603	852.780327	-474.037882	366.429475	769.412085	-458.520533	308.085928	703.688801	-448.459804	395.972561	758.483613	-436.086084	453.746553	481.543584	-391.365419	-215.362749	960.951265	-255.903467	-17.761249	81.138898	-461.016054	-17.761264	81.148433	-62.147077	
